<?xml version="1.0" encoding="UTF-8"?>
<svg width="24px" height="24px" viewBox="0 0 24 24" version="1.1" xmlns="http://www.w3.org/2000/svg" xmlns:xlink="http://www.w3.org/1999/xlink">
    <!-- Generator: Sketch 64 (93537) - https://sketch.com -->
    <title>icon/24/close/dark</title>
    <desc>Created with Sketch.</desc>
    <g id="icon/24/close/dark" stroke="none" stroke-width="1" fill="none" fill-rule="evenodd">
        <g id="noun_Close_1126681" transform="translate(6.000000, 6.000000)" fill="#2B2B2B">
            <path d="M0.0437156293,0.352446882 C-0.0427301429,0.565322516 0.00840524876,0.809358006 0.173035957,0.969607493 L5.70167038,6.49904997 L0.173035957,12.0284925 C0.0258786646,12.1701853 -0.0332804671,12.3803248 0.018338566,12.5779941 C0.069957599,12.7756634 0.224303843,12.9300322 0.421944242,12.9816588 C0.619584641,13.0332853 0.829693478,12.9741176 0.971365574,12.8269388 L6.5,7.29749627 L12.0286344,12.8269388 C12.1703065,12.9741176 12.3804154,13.0332853 12.5780558,12.9816588 C12.7756962,12.9300322 12.9300424,12.7756634 12.9816614,12.5779941 C13.0332805,12.3803248 12.9741213,12.1701853 12.826964,12.0284925 L7.29832962,6.49904997 L12.826964,0.969607493 C12.9939367,0.807280981 13.0441421,0.559082473 12.9533885,0.344608054 C12.8626349,0.130133635 12.64954,-0.00661830959 12.4167849,0.000247046359 C12.270116,0.00461728325 12.1309095,0.0659236584 12.028657,0.171178132 L6.50002258,5.70062061 L0.971388156,0.171178132 C0.865098941,0.0619037905 0.71914861,0.000254792846 0.566718989,0.000247046359 C0.336949934,0.000305621498 0.130161402,0.139571249 0.0437156293,0.352446882 Z" id="Path"></path>
        </g>
    </g>
</svg>