<?xml version="1.0" encoding="UTF-8"?>
<svg width="24px" height="24px" viewBox="0 0 24 24" version="1.1" xmlns="http://www.w3.org/2000/svg" xmlns:xlink="http://www.w3.org/1999/xlink">
    <!-- Generator: Sketch 64 (93537) - https://sketch.com -->
    <title>icon/24/cart/dark</title>
    <desc>Created with Sketch.</desc>
    <g id="icon/24/cart/dark" stroke="none" stroke-width="1" fill="none" fill-rule="evenodd">
        <g id="noun_cart_1832890" transform="translate(3.000000, 4.000000)" fill="#000000" fill-rule="nonzero">
            <path d="M0.421949724,0.000457419746 C0.209583434,-0.00620921941 0.027472961,0.1512649 0.00279861728,0.362904732 C-0.0218757265,0.574544564 0.119099226,0.769903117 0.327270936,0.812548031 L1.85692142,1.14948807 L2.25001825,3.02568431 C2.25029548,3.02697783 2.25057895,3.02826999 2.25086864,3.02956075 L4.20038398,11.8832998 C4.24181675,12.0712376 4.40794758,12.2050661 4.59987189,12.2050661 L15.6409911,12.2050661 C15.7885825,12.2072122 15.9259073,12.1295015 16.0003409,12.0016686 C16.0747746,11.8738357 16.0747746,11.7157038 16.0003409,11.5878709 C15.9259073,11.460038 15.7885825,11.3823273 15.6409911,11.3845185 L4.92862187,11.3845185 L4.55230173,9.67500909 L16.1982492,9.67500909 C16.3901697,9.67501924 16.5563002,9.54123595 16.5977394,9.35330345 L17.9903639,3.02919637 C18.0171142,2.90776192 17.9875012,2.78071331 17.9098469,2.6837541 C17.8321926,2.5867949 17.7148786,2.53039047 17.5908729,2.53039176 C12.7211807,2.53051581 7.85150944,2.53039176 2.98190433,2.5280659 L2.6031884,0.720777226 C2.57011049,0.562738526 2.44767362,0.438855263 2.29038791,0.404281526 L0.503065533,0.0108540279 C0.476462659,0.00452753032 0.449294424,0.000891343357 0.421968278,0 L0.421949724,0.000457419746 Z M3.15885855,3.3490103 C7.7997654,3.35133616 12.4406851,3.35133616 17.081505,3.35133616 L15.8694505,8.85492526 L4.37131511,8.85492526 L3.15885855,3.3490103 Z M7.21728548,13.0713429 C6.41680492,13.0713429 5.76034166,13.7324463 5.76034166,14.5356753 C5.76034166,15.3388812 6.41679332,16 7.21728548,16 C8.017775,16 8.67422666,15.3388812 8.67422666,14.5356753 C8.67422666,13.7324463 8.01776263,13.0713429 7.21728548,13.0713429 Z M13.0850016,13.0713429 C12.2845222,13.0713429 11.6280589,13.7324463 11.6280589,14.5356753 C11.6280589,15.3388812 12.2845113,16 13.0850016,16 C13.8854912,16 14.5419428,15.3388812 14.5419428,14.5356753 C14.5419428,13.7324463 13.8854803,13.0713429 13.0850016,13.0713429 Z M7.21728548,13.8918454 C7.57419812,13.8918454 7.85607063,14.1744688 7.85607063,14.5356753 C7.85607063,14.8968586 7.57420199,15.1795053 7.21728548,15.1795053 C6.86036819,15.1795053 6.57849801,14.8968586 6.57849801,14.5356753 C6.57849801,14.1744688 6.86037206,13.8918454 7.21728548,13.8918454 Z M13.0850016,13.8918454 C13.4419135,13.8918454 13.7237868,14.1744688 13.7237868,14.5356753 C13.7237868,14.8968586 13.4419189,15.1795053 13.0850016,15.1795053 C12.7280844,15.1795053 12.4462157,14.8968586 12.4462157,14.5356753 C12.4462157,14.1744688 12.728089,13.8918454 13.0850016,13.8918454 Z" id="Shape"></path>
        </g>
    </g>
</svg>