<svg xmlns="http://www.w3.org/2000/svg" width="50" height="44.81" viewBox="0 0 50 44.81"><defs><style>.cls-1{fill:#111}.cls-2{fill:#00c569}</style></defs><title>A_shout</title><g id="Layer_2" data-name="Layer 2"><g id="A_shout"><path class="cls-1" d="M35.45 0A2.56 2.56 0 0 0 34 .49C24.15 7.53 12 9 4.81 9H2.54A2.54 2.54 0 0 0 0 11.53V22.1a2.54 2.54 0 0 0 2.54 2.54h.12c.65 0 1.37-.05 2.15-.05h.1L6.6 41a4.27 4.27 0 0 0 4.24 3.82h6.44a4.25 4.25 0 0 0 4.23-4.69l-1.38-13.45A43.94 43.94 0 0 1 34 33.13a2.57 2.57 0 0 0 1.5.5 2.54 2.54 0 0 0 2.5-2.54V2.54A2.53 2.53 0 0 0 35.45 0zm-19 39.81h-5L10 24.83c1.58.15 3.27.36 5 .68zM33 26.6c-10.9-6.2-22.83-7-28-7V14c5.17 0 17.1-.82 28-7z"/><path class="cls-2" d="M41 10.82a2.5 2.5 0 0 0 1.53 2.3 4 4 0 0 1 0 7.39 2.48 2.48 0 0 0-1.53 2.3 2.49 2.49 0 0 0 3.39 2.34 9 9 0 0 0 0-16.68A2.5 2.5 0 0 0 41 10.82z"/></g></g></svg>