<svg xmlns="http://www.w3.org/2000/svg" width="35" height="50.11" viewBox="0 0 35 50.11"><defs><style>.cls-1{fill:#111}.cls-2{fill:#00c569}</style></defs><title>Address</title><g id="Layer_2" data-name="Layer 2"><g id="Address"><path class="cls-1" d="M25.68 35a2.5 2.5 0 0 0 3.43-1C32.33 27.75 35 21.33 35 17.5a17.5 17.5 0 0 0-35 0C0 25 10.87 42.47 15.71 49a2.77 2.77 0 0 0 4.49-.06c1.07-1.53 2.44-3.64 3.93-6.08a2.52 2.52 0 0 0-.93-3.49 2.51 2.51 0 0 0-3.34.9c-.67 1.1-1.33 2.16-2 3.16C12.17 35.13 5 22.2 5 17.5a12.5 12.5 0 0 1 25 0c0 2.77-2.32 8.36-5.33 14.18a2.51 2.51 0 0 0 1 3.34z"/><path class="cls-2" d="M17.5 14a3.5 3.5 0 1 1-3.5 3.5 3.5 3.5 0 0 1 3.5-3.5m0-5a8.5 8.5 0 1 0 8.5 8.5A8.51 8.51 0 0 0 17.5 9z"/></g></g></svg>