<svg xmlns="http://www.w3.org/2000/svg" width="46.97" height="50" viewBox="0 0 46.97 50"><defs><style>.cls-1{fill:#111}.cls-2{fill:#00c569}</style></defs><title>Avatar</title><g id="Layer_2" data-name="Layer 2"><g id="Avatar"><path class="cls-1" d="M46.82 42.12l-1.28-6.07a12 12 0 0 0-5.45-7.77l-7.69-4.76a11.08 11.08 0 0 0 2.15-5.46l.61-5.75A11.13 11.13 0 0 0 24.1 0h-1.23A11.13 11.13 0 0 0 11.8 12.31l.62 5.75a11.08 11.08 0 0 0 2.15 5.46l-7.7 4.76a12 12 0 0 0-5.45 7.77L.14 42.12A6.53 6.53 0 0 0 6.53 50h33.9a6.53 6.53 0 0 0 6.39-7.88zM18.31 7a6.07 6.07 0 0 1 4.56-2h1.23a6.12 6.12 0 0 1 6.09 6.78l-.61 5.74a6.13 6.13 0 0 1-12.19 0l-.61-5.74A6 6 0 0 1 18.31 7zm23.31 37.4a1.48 1.48 0 0 1-1.19.57H6.53a1.48 1.48 0 0 1-1.19-.57A1.52 1.52 0 0 1 5 43.15l1.28-6.07a7.09 7.09 0 0 1 3.22-4.54l9.13-5.66a11.06 11.06 0 0 0 9.7 0l9.13 5.66a7.09 7.09 0 0 1 3.19 4.54l1.28 6.07a1.52 1.52 0 0 1-.31 1.28z"/><rect class="cls-2" x="25.48" y="36" width="10" height="5" rx="2.5" ry="2.5"/></g></g></svg>