<svg xmlns="http://www.w3.org/2000/svg" width="50" height="47.56" viewBox="0 0 50 47.56"><defs><style>.cls-1{fill:#111}.cls-2{fill:#00c569}</style></defs><title>Back_2</title><g id="Layer_2" data-name="Layer 2"><g id="Back_2"><path class="cls-1" d="M47.5 22.36h-45a2.63 2.63 0 0 0-.49.05l-.21.07a1.29 1.29 0 0 0-.26.08 1.67 1.67 0 0 0-.23.12 1.24 1.24 0 0 0-.2.1 2.55 2.55 0 0 0-.69.7l-.11.19a1.79 1.79 0 0 0-.12.24c0 .08 0 .17-.08.25a1.66 1.66 0 0 0-.06.21 2.31 2.31 0 0 0 0 1 1.8 1.8 0 0 0 .06.22c0 .08.05.17.08.25s.08.16.12.24l.11.19a1.91 1.91 0 0 0 .31.38l20.19 20.17a2.5 2.5 0 0 0 3.54-3.53L8.53 27.36h39a2.5 2.5 0 0 0 0-5z"/><rect class="cls-2" x="1.82" y="7.68" width="26.73" height="5" rx="2.5" ry="2.5" transform="rotate(-45 15.187 10.18)"/></g></g></svg>