<svg xmlns="http://www.w3.org/2000/svg" width="50" height="43.36" viewBox="0 0 50 43.36"><defs><style>.cls-1{fill:#00c569}.cls-2{fill:#111}</style></defs><title>Back</title><g id="Layer_2" data-name="Layer 2"><g id="Back"><rect class="cls-1" x="4.1" y="2.18" width="11.17" height="5" rx="2.5" ry="2.5" transform="rotate(-45 9.687 4.677)"/><path class="cls-2" d="M33.55 11.36H2.5a2.72 2.72 0 0 0-.49.05l-.21.06-.26.08-.23.13-.2.1a2.52 2.52 0 0 0-.69.69 1.86 1.86 0 0 0-.1.2l-.13.23-.08.26a1.66 1.66 0 0 0-.06.21 2.69 2.69 0 0 0 0 1 1.66 1.66 0 0 0 .06.21l.08.26.13.23.1.2a3.68 3.68 0 0 0 .31.38l9.09 9.1a2.6 2.6 0 0 0 3.45.26 2.49 2.49 0 0 0 .19-3.71l-4.92-4.94h25.14A11.21 11.21 0 0 1 45 26.31a11 11 0 0 1-11 12.05H2.5a2.5 2.5 0 0 0-2.5 2.5 2.5 2.5 0 0 0 2.5 2.5H34A16 16 0 0 0 50 26.6c-.42-8.6-7.83-15.24-16.45-15.24z"/></g></g></svg>