<svg xmlns="http://www.w3.org/2000/svg" width="42.37" height="50" viewBox="0 0 42.37 50"><defs><style>.cls-1{fill:#111}.cls-2{fill:#00c569}</style></defs><title>Basket_2</title><g id="Layer_2" data-name="Layer 2"><g id="Basket_2"><path class="cls-1" d="M31.16 5a2.75 2.75 0 0 1 2.75 2.49L37.36 42a2.78 2.78 0 0 1-.7 2.13 2.74 2.74 0 0 1-2 .91H7.76A2.76 2.76 0 0 1 5 42L8.46 7.49A2.75 2.75 0 0 1 11.21 5h20m0-5h-20a7.75 7.75 0 0 0-7.72 7L0 41.47A7.75 7.75 0 0 0 7.76 50h26.85a7.75 7.75 0 0 0 7.72-8.53L38.88 7a7.75 7.75 0 0 0-7.72-7z"/><path class="cls-2" d="M28.25 9a2.46 2.46 0 0 0-2.34 1.64 5 5 0 0 1-9.45 0A2.46 2.46 0 0 0 14.12 9a2.52 2.52 0 0 0-2.35 3.39 10 10 0 0 0 18.83 0A2.52 2.52 0 0 0 28.25 9z"/></g></g></svg>