<svg xmlns="http://www.w3.org/2000/svg" width="44" height="50" viewBox="0 0 44 50"><defs><style>.cls-1{fill:#00c569}.cls-2{fill:#111}</style></defs><title>Bell</title><g id="Layer_2" data-name="Layer 2"><g id="Bell"><path class="cls-1" d="M25 41v1a3 3 0 0 1-6 0v-1h-5v1a8 8 0 0 0 16 0v-1z"/><path class="cls-2" d="M41.36 36A2.36 2.36 0 0 1 39 33.64V22A17 17 0 0 0 24.5 5.2V2.64A2.6 2.6 0 0 0 22.26 0a2.5 2.5 0 0 0-2.76 2.5v2.7A17 17 0 0 0 5 22v11.64A2.36 2.36 0 0 1 2.64 36 2.6 2.6 0 0 0 0 38.24 2.5 2.5 0 0 0 2.5 41h39a2.5 2.5 0 0 0 2.5-2.76A2.6 2.6 0 0 0 41.36 36zM10 36V22.35a12.25 12.25 0 0 1 10.84-12.3A12 12 0 0 1 34 22v14z"/></g></g></svg>