<svg xmlns="http://www.w3.org/2000/svg" width="50" height="50" viewBox="0 0 50 50"><defs><style>.cls-1{fill:#111}.cls-2{fill:#00c569}</style></defs><title>Box</title><g id="Layer_2" data-name="Layer 2"><g id="Box"><path class="cls-1" d="M48.86 11.35l-5.94-8.58A6.45 6.45 0 0 0 37.63 0H12.37a6.45 6.45 0 0 0-5.29 2.77l-5.94 8.58A6.44 6.44 0 0 0 0 15v28.56A6.44 6.44 0 0 0 6.44 50h37.12A6.44 6.44 0 0 0 50 43.56V15a6.44 6.44 0 0 0-1.14-3.65zM37.63 5a1.43 1.43 0 0 1 1.18.62L42.53 11h-15V5zm-26.44.62A1.43 1.43 0 0 1 12.37 5H22.5v6h-15zM45 43.56A1.43 1.43 0 0 1 43.56 45H6.44A1.43 1.43 0 0 1 5 43.56V17.25A1.25 1.25 0 0 1 6.25 16h37.5A1.25 1.25 0 0 1 45 17.25z"/><rect class="cls-2" x="15" y="21" width="20" height="5" rx="2.5" ry="2.5"/></g></g></svg>