<svg xmlns="http://www.w3.org/2000/svg" width="50" height="50" viewBox="0 0 50 50"><defs><style>.cls-1{fill:#111}.cls-2{fill:#00c569}</style></defs><title>Сalendar</title><g id="Layer_2" data-name="Layer 2"><g id="Сalendar"><path class="cls-1" d="M41.92 5H40V2.5a2.5 2.5 0 0 0-5 0V5H15V2.5a2.5 2.5 0 0 0-5 0V5H8.08A8.08 8.08 0 0 0 0 13.08v28.84A8.08 8.08 0 0 0 8.08 50h33.84A8.08 8.08 0 0 0 50 41.92V13.08A8.08 8.08 0 0 0 41.92 5zM45 41.92A3.08 3.08 0 0 1 41.92 45H8.08A3.08 3.08 0 0 1 5 41.92V13.08A3.08 3.08 0 0 1 8.08 10H10v2.5a2.5 2.5 0 0 0 5 0V10h20v2.5a2.5 2.5 0 0 0 5 0V10h1.92A3.08 3.08 0 0 1 45 13.08z"/><circle class="cls-1" cx="25" cy="25.5" r="2.5"/><circle class="cls-1" cx="25" cy="34.5" r="2.5"/><circle class="cls-1" cx="16" cy="34.5" r="2.5"/><g><circle class="cls-2" cx="34" cy="25.5" r="2.5"/><circle class="cls-2" cx="34" cy="34.5" r="2.5"/></g></g></g></svg>