<svg xmlns="http://www.w3.org/2000/svg" width="50" height="50" viewBox="0 0 50 50"><defs><style>.cls-1{fill:#111}.cls-2{fill:#00c569}</style></defs><title>Camera</title><g id="Layer_2" data-name="Layer 2"><g id="Camera"><path class="cls-1" d="M41.92 9h-3.67l-1-4a6.63 6.63 0 0 0-6.43-5H19.17a6.63 6.63 0 0 0-6.43 5l-1 4H8.08A8.08 8.08 0 0 0 0 17.08v24.84A8.08 8.08 0 0 0 8.08 50h33.84A8.08 8.08 0 0 0 50 41.92V17.08A8.08 8.08 0 0 0 41.92 9zM45 41.92A3.08 3.08 0 0 1 41.92 45H8.08A3.08 3.08 0 0 1 5 41.92V17.08A3.08 3.08 0 0 1 8.08 14h5.16a3.07 3.07 0 0 0 3-2.34l1.29-5.15A2 2 0 0 1 19.46 5h11.08a2 2 0 0 1 1.94 1.51l1.29 5.15a3.07 3.07 0 0 0 3 2.34h5.16A3.08 3.08 0 0 1 45 17.08z"/><circle class="cls-1" cx="39.5" cy="19.5" r="2.5"/><path class="cls-2" d="M25 22a7 7 0 1 1-7 7 7 7 0 0 1 7-7m0-5a12 12 0 1 0 12 12 12 12 0 0 0-12-12z"/></g></g></svg>