<svg xmlns="http://www.w3.org/2000/svg" width="50" height="50" viewBox="0 0 50 50"><defs><style>.cls-1{fill:#00c569}.cls-2{fill:#111}</style></defs><title>Clock</title><g id="Layer_2" data-name="Layer 2"><g id="Clock"><path class="cls-1" d="M26.82 27.62l9-4.89a2.49 2.49 0 0 0 .79-3.44 2.5 2.5 0 0 0-3.44-.8l-9 4.89a2.49 2.49 0 0 0-.8 3.44 2.49 2.49 0 0 0 3.45.8z"/><path class="cls-2" d="M25 0a25 25 0 1 0 25 25A25 25 0 0 0 25 0zm0 45a20 20 0 1 1 20-20 20 20 0 0 1-20 20z"/><path class="cls-2" d="M16.82 13.7a2.5 2.5 0 0 0-3.38 3.68l10.37 10a2.5 2.5 0 1 0 3.38-3.68z"/></g></g></svg>