<svg xmlns="http://www.w3.org/2000/svg" width="49.74" height="48.5" viewBox="0 0 49.74 48.5"><defs><style>.cls-1{fill:#111}.cls-2{fill:#00c569}</style></defs><title>Cloud</title><g id="Layer_2" data-name="Layer 2"><g id="Cloud"><path class="cls-1" d="M34.71 39H12.34a12.34 12.34 0 0 1-6.07-23.08v-.45A15.47 15.47 0 0 1 35.78 9a15 15 0 0 1-1.07 30zm-13-34a10.49 10.49 0 0 0-10.45 10.47 10.82 10.82 0 0 0 .14 1.59l.31 2-1.91.71A7.34 7.34 0 0 0 12.34 34h22.37a10 10 0 1 0 0-20h-.25l-2.17.11-.59-1.82A10.44 10.44 0 0 0 21.74 5z"/><path class="cls-2" d="M37.87 41.49z"/><rect class="cls-2" x="12.87" y="43.5" width="24" height="5" rx="2.5" ry="2.5"/></g></g></svg>