<svg xmlns="http://www.w3.org/2000/svg" width="50" height="48.56" viewBox="0 0 50 48.56"><defs><style>.cls-1{fill:#111}.cls-2{fill:#00c569}</style></defs><title>Compare</title><g id="Layer_2" data-name="Layer 2"><g id="Compare"><path class="cls-1" d="M49.89 34c0-.09 0-.17-.08-.25a1.83 1.83 0 0 0-.13-.24 1.14 1.14 0 0 0-.1-.19 3 3 0 0 0-.31-.39l-9.19-9.19a2.5 2.5 0 0 0-3.54 3.54l4.92 4.92H2.5a2.5 2.5 0 0 0 0 5h45a2 2 0 0 0 .49 0 1.66 1.66 0 0 0 .21-.06 2.58 2.58 0 0 0 .26-.08 2.53 2.53 0 0 0 .23-.12l.2-.11a2.52 2.52 0 0 0 .69-.69 1.24 1.24 0 0 0 .1-.2 1.71 1.71 0 0 0 .13-.23c0-.08 0-.17.08-.26a1.29 1.29 0 0 0 .06-.21 2.69 2.69 0 0 0 0-1 1.66 1.66 0 0 0-.06-.24zM.11 14.57c0 .08.05.17.08.25s.08.16.13.24a1.74 1.74 0 0 0 .1.19 2.33 2.33 0 0 0 .31.38l9.19 9.19a2.5 2.5 0 1 0 3.54-3.53l-4.92-4.93h39a2.5 2.5 0 0 0 0-5H2.5a2.72 2.72 0 0 0-.49.05l-.21.07a1.29 1.29 0 0 0-.26.08 2.53 2.53 0 0 0-.23.12l-.2.1a2.55 2.55 0 0 0-.69.7 1.74 1.74 0 0 0-.1.19 1.83 1.83 0 0 0-.13.24c0 .08 0 .17-.08.25a1.66 1.66 0 0 0-.06.21 2.69 2.69 0 0 0 0 1 1.8 1.8 0 0 0 .06.2z"/><g><path class="cls-2" d="M44.27 39.92a2.52 2.52 0 0 0-3.54 0l-4.36 4.37a2.5 2.5 0 0 0 3.53 3.53l4.37-4.36a2.52 2.52 0 0 0 0-3.54zM10.1.73L5.73 5.1a2.5 2.5 0 0 0 3.54 3.53l4.36-4.36A2.5 2.5 0 0 0 10.1.73z"/></g></g></g></svg>