<svg xmlns="http://www.w3.org/2000/svg" width="49.63" height="50" viewBox="0 0 49.63 50"><defs><style>.cls-1{fill:#111}.cls-2{fill:#00c569}</style></defs><title>Delivery</title><g id="Layer_2" data-name="Layer 2"><g id="Delivery"><path class="cls-1" d="M41.23 33l-11.36 4.73 1.9 4.62 11.36-4.68a2.5 2.5 0 0 0-1.9-4.67zM11.31 1.57a2 2 0 0 0-.15-.29l-.08-.16a2.88 2.88 0 0 0-.22-.27l-.09-.11A2.5 2.5 0 0 0 8.06.18L1.57 2.8a2.5 2.5 0 0 0 1.86 4.64l4.19-1.69L18 31.13a2.51 2.51 0 0 0 4.64-1.9zM49.35 22.24L44.19 9.68a3.72 3.72 0 0 0-4.84-2L24 14a3.7 3.7 0 0 0-2 4.84l5.16 12.56a3.71 3.71 0 0 0 4.84 2l15.34-6.3a3.71 3.71 0 0 0 2.01-4.86zm-5.9 1l-11.39 4.7a.83.83 0 0 1-1.1-.46l-3.54-8.61a.85.85 0 0 1 .46-1.1l11.39-4.68a.84.84 0 0 1 1.1.46l3.54 8.61a.85.85 0 0 1-.46 1.11z"/><path class="cls-2" d="M25 40a2.5 2.5 0 1 1-2.5 2.5A2.5 2.5 0 0 1 25 40m0-5a7.5 7.5 0 1 0 7.5 7.5A7.5 7.5 0 0 0 25 35z"/></g></g></svg>