<svg xmlns="http://www.w3.org/2000/svg" width="49.82" height="48" viewBox="0 0 49.82 48"><defs><style>.cls-1{fill:#111}.cls-2{fill:#00c569}</style></defs><title>Dislike</title><g id="Layer_2" data-name="Layer 2"><g id="Dislike"><path class="cls-1" d="M7 32h5.84c-4 16 7 16 7 16h2.77a4.61 4.61 0 0 0 4.58-5.19L27 41.66a4.7 4.7 0 0 1 .67-3.08l3.35-4.81a2.51 2.51 0 0 0-.82-3.44 2.5 2.5 0 0 0-3.45.82l-4.22 6.23a5.06 5.06 0 0 0-.71 2.62 4.3 4.3 0 0 0 0 .62l.18 1.11A1.13 1.13 0 0 1 20.88 43h-1.06a3.17 3.17 0 0 1-2-1.06c-.54-.69-1.62-2.91-.17-8.73L19.22 27H7.39a2.28 2.28 0 0 1-2.2-2.9l4-14.42A2.3 2.3 0 0 1 11.37 8h21.79a2.61 2.61 0 0 0 2.66-2.65A2.5 2.5 0 0 0 33.32 3H11.13a7 7 0 0 0-6.72 5.12L.25 23.17A7 7 0 0 0 7 32z"/><path class="cls-2" d="M35 29h11.63a3.19 3.19 0 0 0 3.19-3.19V3.19A3.19 3.19 0 0 0 46.63 0H35a3.19 3.19 0 0 0-3.19 3.19v22.62A3.19 3.19 0 0 0 35 29zm1.82-22.88A1.12 1.12 0 0 1 37.94 5h5.76a1.12 1.12 0 0 1 1.12 1.12v16.76A1.12 1.12 0 0 1 43.7 24h-5.76a1.12 1.12 0 0 1-1.12-1.12z"/></g></g></svg>