<svg xmlns="http://www.w3.org/2000/svg" width="37.24" height="50" viewBox="0 0 37.24 50"><defs><style>.cls-1{fill:#111}.cls-2{fill:#00c569}</style></defs><title>Dollar</title><g id="Layer_2" data-name="Layer 2"><g id="Dollar"><path class="cls-1" d="M33.77 18.06h-.25A2.5 2.5 0 0 1 31 15.57a2.48 2.48 0 0 0-2.48-2.48H8.69a2.48 2.48 0 0 0-2.48 2.48v4.34a2.48 2.48 0 0 0 2.48 2.48h21.22a7.33 7.33 0 0 1 7.33 7.33v5A7.33 7.33 0 0 1 29.91 42H7.33A7.33 7.33 0 0 1 0 34.67v-.24a2.49 2.49 0 0 1 2.48-2.49h.25a2.49 2.49 0 0 1 2.48 2.49 2.49 2.49 0 0 0 2.49 2.48h21.84A2.48 2.48 0 0 0 32 34.43V30a2.48 2.48 0 0 0-2.49-2.49H8.32A7.33 7.33 0 0 1 1 20.15v-4.82A7.33 7.33 0 0 1 8.32 8h20.6a7.33 7.33 0 0 1 7.33 7.33v.24a2.49 2.49 0 0 1-2.48 2.49z"/><path class="cls-2" d="M16 2.5V8h5V2.5A2.5 2.5 0 0 0 18.5 0 2.5 2.5 0 0 0 16 2.5zM18.5 50a2.5 2.5 0 0 0 2.5-2.5V42h-5v5.5a2.5 2.5 0 0 0 2.5 2.5z"/></g></g></svg>