<svg xmlns="http://www.w3.org/2000/svg" width="50" height="50" viewBox="0 0 50 50"><defs><style>.cls-1{fill:#111}.cls-2{fill:#00c569}</style></defs><title>Entry</title><g id="Layer_2" data-name="Layer 2"><g id="Entry"><path class="cls-1" d="M43.25 0h-20.5A6.75 6.75 0 0 0 16 6.75v7.75a2.5 2.5 0 0 0 5 0V6.75A1.76 1.76 0 0 1 22.75 5h20.5A1.76 1.76 0 0 1 45 6.75v36.5A1.76 1.76 0 0 1 43.25 45h-20.5A1.76 1.76 0 0 1 21 43.25V34.5a2.5 2.5 0 0 0-5 0v8.75A6.75 6.75 0 0 0 22.75 50h20.5A6.75 6.75 0 0 0 50 43.25V6.75A6.75 6.75 0 0 0 43.25 0z"/><path class="cls-1" d="M38 27a1.66 1.66 0 0 0 .21-.06l.26-.08.23-.13.2-.1a2.52 2.52 0 0 0 .69-.69l.1-.2.13-.23.08-.26A1.66 1.66 0 0 0 40 25a2.69 2.69 0 0 0 0-1 1.66 1.66 0 0 0-.06-.21l-.08-.26-.13-.23-.1-.2a3.68 3.68 0 0 0-.31-.38l-9.19-9.19a2.5 2.5 0 0 0-3.54 3.54L31.46 22H2.5a2.5 2.5 0 0 0 0 5h35a2.72 2.72 0 0 0 .5 0z"/><rect class="cls-2" x="24.73" y="31.18" width="11.17" height="5" rx="2.5" ry="2.5" transform="rotate(-45 30.312 33.684)"/></g></g></svg>