<svg xmlns="http://www.w3.org/2000/svg" width="31.27" height="49.98" viewBox="0 0 31.27 49.98"><defs><style>.cls-1{fill:#00c569}.cls-2{fill:#111}</style></defs><title>Filter</title><g id="Layer_2" data-name="Layer 2"><g id="Filter"><path class="cls-1" d="M13.81 36.5V24L8.43 10.57a2.5 2.5 0 0 0-4.65 1.86L8.81 25v11.5a2.5 2.5 0 0 0 5 0z"/><path class="cls-2" d="M25.94 0H2.5a2.5 2.5 0 0 0 0 5H25a1 1 0 0 1 .91 1.35L18.81 24v11.61l-8.33 10.21a2.5 2.5 0 1 0 3.74 3.32l9-11 .09-.12.16-.22.11-.21a1.6 1.6 0 0 0 .1-.23 1.55 1.55 0 0 0 .07-.23l.06-.23a2.45 2.45 0 0 0 0-.27.77.77 0 0 0 0-.15V25l7.08-17.7A5.33 5.33 0 0 0 25.94 0z"/></g></g></svg>