<svg xmlns="http://www.w3.org/2000/svg" width="37.64" height="50" viewBox="0 0 37.64 50"><defs><style>.cls-1{fill:#111}.cls-2{fill:#00c569}</style></defs><title>Flag</title><g id="Layer_2" data-name="Layer 2"><g id="Flag"><path class="cls-1" d="M34.58 15.61l2.84-6.83A2.73 2.73 0 0 0 34.9 5H10V2.5A2.5 2.5 0 0 0 7.5 0 2.5 2.5 0 0 0 5 2.5v36A2.5 2.5 0 0 0 7.5 41a2.5 2.5 0 0 0 2.5-2.5V29h24.9a2.73 2.73 0 0 0 2.52-3.78l-2.84-6.83a3.62 3.62 0 0 1 0-2.78zm-4 8.39H10V10h20.59a.61.61 0 0 1 .56.84l-2 4.77a3.62 3.62 0 0 0 0 2.78l2 4.77a.61.61 0 0 1-.56.84z"/><path class="cls-2" d="M12.5 45h-10a2.5 2.5 0 0 0 0 5h10a2.5 2.5 0 0 0 0-5z"/></g></g></svg>