<svg xmlns="http://www.w3.org/2000/svg" width="50" height="44" viewBox="0 0 50 44"><defs><style>.cls-1{fill:#111}.cls-2{fill:#00c569}</style></defs><title>Folder</title><g id="Layer_2" data-name="Layer 2"><g id="Folder"><path class="cls-1" d="M41.78 9H30v-.78A8.22 8.22 0 0 0 21.78 0H8.22A8.22 8.22 0 0 0 0 8.22v27.56A8.22 8.22 0 0 0 8.22 44h33.56A8.22 8.22 0 0 0 50 35.78V17.22A8.22 8.22 0 0 0 41.78 9zM45 35.78A3.22 3.22 0 0 1 41.78 39H8.22A3.22 3.22 0 0 1 5 35.78V8.22A3.22 3.22 0 0 1 8.22 5h13.56A3.22 3.22 0 0 1 25 8.22V9h-8.5a2.5 2.5 0 0 0 0 5h25.28A3.22 3.22 0 0 1 45 17.22z"/><rect class="cls-2" x="14" y="19" width="26" height="5" rx="2.5" ry="2.5"/></g></g></svg>