<svg xmlns="http://www.w3.org/2000/svg" width="50" height="43.36" viewBox="0 0 50 43.36"><defs><style>.cls-1{fill:#00c569}.cls-2{fill:#111}</style></defs><title>Forward</title><g id="Layer_2" data-name="Layer 2"><g id="Forward"><rect class="cls-1" x="37.82" y="-.9" width="5" height="11.17" rx="2.5" ry="2.5" transform="rotate(-45 40.318 4.68)"/><path class="cls-2" d="M16.45 11.36H47.5a2.72 2.72 0 0 1 .49.05l.21.06.26.08.23.13.2.1a2.52 2.52 0 0 1 .69.69l.1.2.13.23.08.26a1.66 1.66 0 0 1 .06.21 2.69 2.69 0 0 1 0 1 1.66 1.66 0 0 1-.06.21l-.08.26-.13.23-.1.2a3.68 3.68 0 0 1-.31.38l-9.09 9.1a2.6 2.6 0 0 1-3.45.26 2.49 2.49 0 0 1-.19-3.71l4.92-4.92H16.32a11.21 11.21 0 0 0-11.27 10A11 11 0 0 0 16 38.36h31.5a2.5 2.5 0 0 1 2.5 2.5 2.5 2.5 0 0 1-2.5 2.5H16A16 16 0 0 1 0 26.6C.42 18 7.83 11.36 16.45 11.36z"/></g></g></svg>