<svg xmlns="http://www.w3.org/2000/svg" width="39" height="50" viewBox="0 0 39 50"><defs><style>.cls-1{fill:#111}.cls-2{fill:#00c569}</style></defs><title>Garbage</title><g id="Layer_2" data-name="Layer 2"><g id="Garbage"><path class="cls-1" d="M22.25 0h-5.5A2.75 2.75 0 0 0 14 2.75V5H2.5a2.5 2.5 0 0 0 0 5H31v33.25A1.76 1.76 0 0 1 29.25 45H9.75A1.76 1.76 0 0 1 8 43.25V17.5a2.5 2.5 0 1 0-5 0v25.75A6.75 6.75 0 0 0 9.75 50h19.5A6.75 6.75 0 0 0 36 43.25V10h.5a2.5 2.5 0 0 0 0-5H25V2.75A2.75 2.75 0 0 0 22.25 0z"/><path class="cls-2" d="M15.5 15a2.5 2.5 0 0 0-2.5 2.5v21a2.5 2.5 0 0 0 5 0v-21a2.5 2.5 0 0 0-2.5-2.5zM23.5 15a2.5 2.5 0 0 0-2.5 2.5v21a2.5 2.5 0 0 0 5 0v-21a2.5 2.5 0 0 0-2.5-2.5z"/></g></g></svg>