<svg xmlns="http://www.w3.org/2000/svg" width="49.36" height="42.75" viewBox="0 0 49.36 42.75"><defs><style>.cls-1{fill:#111}.cls-2{fill:#00c569}</style></defs><title>Heart</title><g id="Layer_2" data-name="Layer 2"><g id="Heart"><path class="cls-1" d="M45.48 4A13.81 13.81 0 0 0 26 4l-1.32 1.32L23.4 4A13.8 13.8 0 0 0 3.89 4c-5.37 5.37-5.09 14.44.28 19.81l1 1 16.77 16.81a3.88 3.88 0 0 0 5.48 0L44.2 24.84l1-1c5.36-5.36 5.65-14.43.28-19.84zm-1 10.33a9.21 9.21 0 0 1-2.77 5.87l-1.05 1.1-16 16-16-16-1.02-1.06a9.22 9.22 0 0 1-2.78-5.87A8.8 8.8 0 0 1 14.21 5a9.17 9.17 0 0 1 5.87 2.8l1.07 1.06L23 10.71l2.64 2.64a2.61 2.61 0 1 0 3.69-3.7l-.95-1 1.12-1.07a8.8 8.8 0 0 1 15 6.79z"/><rect class="cls-2" x="13.68" y="13.83" width="5" height="11.34" rx="2.5" ry="2.5" transform="rotate(-45 16.177 19.5)"/></g></g></svg>