<svg xmlns="http://www.w3.org/2000/svg" width="49.82" height="48" viewBox="0 0 49.82 48"><defs><style>.cls-1{fill:#111}.cls-2{fill:#00c569}</style></defs><title>Like</title><g id="Layer_2" data-name="Layer 2"><g id="Like"><path class="cls-1" d="M42.84 16H37c4-16-7-16-7-16h-2.77a4.61 4.61 0 0 0-4.58 5.19l.14 1.15a4.7 4.7 0 0 1-.67 3.08l-3.34 4.81a2.5 2.5 0 0 0 .82 3.44 2.49 2.49 0 0 0 3.4-.82l4.22-6.23A5.06 5.06 0 0 0 28 8a4.3 4.3 0 0 0 0-.62l-.14-1.11A1.13 1.13 0 0 1 28.94 5H30a3.17 3.17 0 0 1 2 1.06c.54.69 1.62 2.91.17 8.73L30.6 21h11.83a2.28 2.28 0 0 1 2.2 2.9l-4 14.42A2.3 2.3 0 0 1 38.45 40H16.66A2.62 2.62 0 0 0 14 42.65 2.5 2.5 0 0 0 16.5 45h22.19a7 7 0 0 0 6.72-5.12l4.16-15.05A7 7 0 0 0 42.84 16z"/><path class="cls-2" d="M14.81 19H3.19A3.19 3.19 0 0 0 0 22.19v22.62A3.19 3.19 0 0 0 3.19 48h11.62A3.19 3.19 0 0 0 18 44.81V22.19A3.19 3.19 0 0 0 14.81 19zM13 41.88A1.12 1.12 0 0 1 11.88 43H6.12A1.12 1.12 0 0 1 5 41.88V25.12A1.12 1.12 0 0 1 6.12 24h5.76A1.12 1.12 0 0 1 13 25.12z"/></g></g></svg>