<svg xmlns="http://www.w3.org/2000/svg" width="50" height="50" viewBox="0 0 50 50"><defs><style>.cls-1{fill:#111}.cls-2{fill:#00c569}</style></defs><title>Menu</title><g id="Layer_2" data-name="Layer 2"><g id="Menu"><path class="cls-1" d="M41.92 0H8.08A8.08 8.08 0 0 0 0 8.08v33.84A8.08 8.08 0 0 0 8.08 50h33.84A8.08 8.08 0 0 0 50 41.92V8.08A8.08 8.08 0 0 0 41.92 0zM45 41.92A3.08 3.08 0 0 1 41.92 45H8.08A3.08 3.08 0 0 1 5 41.92V8.08A3.08 3.08 0 0 1 8.08 5h33.84A3.08 3.08 0 0 1 45 8.08z"/><path class="cls-1" d="M37.5 12h-25a2.5 2.5 0 0 0 0 5h25a2.5 2.5 0 0 0 0-5zM37.5 23h-25a2.5 2.5 0 0 0 0 5h25a2.5 2.5 0 0 0 0-5z"/><rect class="cls-2" x="10" y="34" width="26" height="5" rx="2.5" ry="2.5"/></g></g></svg>