<svg xmlns="http://www.w3.org/2000/svg" width="50" height="42" viewBox="0 0 50 42"><defs><style>.cls-1{fill:#111}.cls-2{fill:#00c569}</style></defs><title>Options</title><g id="Layer_2" data-name="Layer 2"><g id="Options"><path class="cls-1" d="M40.5 12h7a2.5 2.5 0 0 0 0-5h-7a2.5 2.5 0 0 0 0 5zM15.5 7h-13a2.5 2.5 0 0 0 0 5h13a2.5 2.5 0 0 0 0-5zM9.5 30h-7a2.5 2.5 0 0 0 0 5h7a2.5 2.5 0 0 0 0-5zM47.5 30h-13a2.5 2.5 0 0 0 0 5h13a2.5 2.5 0 0 0 0-5z"/><g><path class="cls-2" d="M18.5 23a9.5 9.5 0 1 0 9.5 9.5 9.5 9.5 0 0 0-9.5-9.5zm0 14a4.5 4.5 0 1 1 4.5-4.5 4.51 4.51 0 0 1-4.5 4.5zM31.5 0A9.5 9.5 0 1 0 41 9.5 9.5 9.5 0 0 0 31.5 0zm0 14A4.5 4.5 0 1 1 36 9.5a4.51 4.51 0 0 1-4.5 4.5z"/></g></g></g></svg>