<svg xmlns="http://www.w3.org/2000/svg" width="37" height="50" viewBox="0 0 37 50"><defs><style>.cls-1{fill:#111}.cls-2{fill:#00c569}</style></defs><title>Page</title><g id="Layer_2" data-name="Layer 2"><g id="Page"><path class="cls-1" d="M34.24 25A2.6 2.6 0 0 0 32 27.64v16.08A1.28 1.28 0 0 1 30.72 45H6.28A1.28 1.28 0 0 1 5 43.72V6.28A1.28 1.28 0 0 1 6.28 5h15.59a.59.59 0 0 1 .49.26L29.75 16H23v-3.36A2.6 2.6 0 0 0 20.76 10 2.5 2.5 0 0 0 18 12.5v5.65A2.86 2.86 0 0 0 20.85 21h13.56a2.55 2.55 0 0 0 2.49-1.81 2.44 2.44 0 0 0-.48-2.27L25.58 1.11v-.06l-.17-.14a1.81 1.81 0 0 0-.18-.21A1.39 1.39 0 0 0 25 .55a1.39 1.39 0 0 0-.15-.15l-.22-.12-.21-.1-.24-.07A.86.86 0 0 0 24 .05a1.27 1.27 0 0 0-.28 0L23.5 0H5.33A5.33 5.33 0 0 0 0 5.33v39.34A5.33 5.33 0 0 0 5.33 50h26.34A5.33 5.33 0 0 0 37 44.67V27.5a2.5 2.5 0 0 0-2.76-2.5z"/><path class="cls-1" d="M12.5 26a2.5 2.5 0 0 0 0 5h12a2.5 2.5 0 0 0 0-5z"/><rect class="cls-2" x="10" y="35" width="12" height="5" rx="2.5" ry="2.5"/></g></g></svg>