<svg xmlns="http://www.w3.org/2000/svg" width="31" height="50" viewBox="0 0 31 50"><defs><style>.cls-1{fill:#111}.cls-2{fill:#00c569}</style></defs><title>Phone_2</title><g id="Layer_2" data-name="Layer 2"><g id="Phone_2"><path class="cls-1" d="M24.25 5A1.76 1.76 0 0 1 26 6.75v36.5A1.76 1.76 0 0 1 24.25 45H6.75A1.76 1.76 0 0 1 5 43.25V6.75A1.76 1.76 0 0 1 6.75 5h17.5m0-5H6.75A6.75 6.75 0 0 0 0 6.75v36.5A6.75 6.75 0 0 0 6.75 50h17.5A6.75 6.75 0 0 0 31 43.25V6.75A6.75 6.75 0 0 0 24.25 0z"/><circle class="cls-2" cx="15.5" cy="38.5" r="3.5"/></g></g></svg>