<svg xmlns="http://www.w3.org/2000/svg" width="50" height="50" viewBox="0 0 50 50"><defs><style>.cls-1{fill:#111}.cls-2{fill:#00c569}</style></defs><title>Printer</title><g id="Layer_2" data-name="Layer 2"><g id="Printer"><path class="cls-1" d="M41.78 10H40V6a6 6 0 0 0-6-6H16a6 6 0 0 0-6 6v4H8.22A8.22 8.22 0 0 0 0 18.22v15.56A8.22 8.22 0 0 0 8.22 42H10v2a6 6 0 0 0 6 6h18a6 6 0 0 0 6-6v-2h1.78A8.22 8.22 0 0 0 50 33.78V18.22A8.22 8.22 0 0 0 41.78 10zM15 6a1 1 0 0 1 1-1h18a1 1 0 0 1 1 1v4H15zm20 38a1 1 0 0 1-1 1H16a1 1 0 0 1-1-1V34a1 1 0 0 1 1-1h18a1 1 0 0 1 1 1zm10-10.22A3.22 3.22 0 0 1 41.78 37H40v-3a6 6 0 0 0-6-6H16a6 6 0 0 0-6 6v3H8.22A3.22 3.22 0 0 1 5 33.78V18.22A3.22 3.22 0 0 1 8.22 15h33.56A3.22 3.22 0 0 1 45 18.22z"/><rect class="cls-2" x="11" y="19" width="16" height="5" rx="2.5" ry="2.5"/></g></g></svg>