<svg xmlns="http://www.w3.org/2000/svg" width="50" height="46" viewBox="0 0 50 46"><defs><style>.cls-1{fill:#111}.cls-2{fill:#00c569}</style></defs><title>Purse</title><g id="Layer_2" data-name="Layer 2"><g id="Purse"><path class="cls-1" d="M47 24v-5a8 8 0 0 0-8-8H8a3 3 0 0 1-3-3.14A3.08 3.08 0 0 1 8.13 5H39a3 3 0 0 1 2.64 1.61 2.5 2.5 0 1 0 4.45-2.3A8 8 0 0 0 39 0H8a8 8 0 0 0-8 8v30a8 8 0 0 0 8 8h31a8 8 0 0 0 8-8v-5h-5v5a3 3 0 0 1-3 3H8a3 3 0 0 1-3-3V15.42A8 8 0 0 0 8 16h31a3 3 0 0 1 3 3v5z"/><path class="cls-2" d="M45 26v5H32v-5h13m.71-5H31.29A4.29 4.29 0 0 0 27 25.29v6.42A4.29 4.29 0 0 0 31.29 36h14.42A4.29 4.29 0 0 0 50 31.71v-6.42A4.29 4.29 0 0 0 45.71 21z"/></g></g></svg>