<svg xmlns="http://www.w3.org/2000/svg" width="50" height="50" viewBox="0 0 50 50"><defs><style>.cls-1{fill:#111}.cls-2{fill:#00c569}</style></defs><title>Settings</title><g id="Layer_2" data-name="Layer 2"><g id="Settings"><path class="cls-1" d="M49.85 22.28A2.58 2.58 0 0 0 47.26 20a1.1 1.1 0 0 1-1.06-.83 22.14 22.14 0 0 0-2.09-5 1.1 1.1 0 0 1 .17-1.34 2.68 2.68 0 0 0 .77-1.86 2.51 2.51 0 0 0-.55-1.58c-.51-.63-1-1.23-1.61-1.81l-.43-.43c-.58-.57-1.18-1.1-1.81-1.61a2.59 2.59 0 0 0-3.44.22 1.09 1.09 0 0 1-.77.32 1.16 1.16 0 0 1-.57-.15 22.14 22.14 0 0 0-5-2.09 1.1 1.1 0 0 1-.87-1.1A2.64 2.64 0 0 0 29.35 1a2.53 2.53 0 0 0-1.63-.85 24.74 24.74 0 0 0-5.44 0A2.58 2.58 0 0 0 20 2.74a1.1 1.1 0 0 1-.83 1.06 22.14 22.14 0 0 0-5 2.09 1.1 1.1 0 0 1-1.34-.17 2.62 2.62 0 0 0-1.9-.72 2.55 2.55 0 0 0-1.58.55c-.63.51-1.23 1-1.81 1.61l-.43.43C6.54 8.12 6 8.72 5.5 9.35a2.6 2.6 0 0 0 .22 3.44 1.09 1.09 0 0 1 .32.77 1.16 1.16 0 0 1-.15.57 22.14 22.14 0 0 0-2.09 5 1.1 1.1 0 0 1-1.06.87 2.64 2.64 0 0 0-1.74.65 2.53 2.53 0 0 0-.85 1.63 24.74 24.74 0 0 0 0 5.44A2.58 2.58 0 0 0 2.74 30a1.1 1.1 0 0 1 1.06.83 22.14 22.14 0 0 0 2.09 5 1.1 1.1 0 0 1-.17 1.34 2.62 2.62 0 0 0-.72 1.9 2.55 2.55 0 0 0 .55 1.58c.51.63 1 1.23 1.61 1.81l.43.43c.58.57 1.18 1.1 1.81 1.61a2.6 2.6 0 0 0 3.44-.22 1.09 1.09 0 0 1 .77-.32 1.16 1.16 0 0 1 .57.15 22.14 22.14 0 0 0 5 2.09 1.1 1.1 0 0 1 .82 1.06 2.64 2.64 0 0 0 .65 1.74 2.53 2.53 0 0 0 1.63.85 24.74 24.74 0 0 0 5.44 0A2.58 2.58 0 0 0 30 47.26a1.1 1.1 0 0 1 .83-1.06 22.14 22.14 0 0 0 5-2.09 1.1 1.1 0 0 1 1.34.17 2.68 2.68 0 0 0 1.86.77 2.51 2.51 0 0 0 1.58-.55c.63-.51 1.23-1 1.81-1.61l.43-.43c.57-.58 1.1-1.18 1.61-1.81a2.59 2.59 0 0 0-.22-3.44 1.09 1.09 0 0 1-.32-.77 1.16 1.16 0 0 1 .15-.57 22.14 22.14 0 0 0 2.09-5 1.1 1.1 0 0 1 1.1-.87 2.64 2.64 0 0 0 1.74-.65 2.53 2.53 0 0 0 .85-1.63 24.74 24.74 0 0 0 0-5.44zM25 43a18 18 0 1 1 18-18 18 18 0 0 1-18 18z"/><path class="cls-2" d="M25 17a8 8 0 1 1-8 8 8 8 0 0 1 8-8m0-5a13 13 0 1 0 13 13 13 13 0 0 0-13-13z"/></g></g></svg>