<svg xmlns="http://www.w3.org/2000/svg" width="44" height="50" viewBox="0 0 44 50"><defs><style>.cls-1{fill:#111}.cls-2{fill:#00c569}</style></defs><title>Sharing</title><g id="Layer_2" data-name="Layer 2"><g id="Sharing"><path class="cls-1" d="M28.41 12.88l-3-4-12.72 9.37 3 4 12.72-9.37zM16.58 26.63l-2.77 4.16 12.2 7.45 2.48-4.34-11.91-7.27z"/><g><path class="cls-2" d="M31.5 15A7.5 7.5 0 1 0 24 7.5a7.5 7.5 0 0 0 7.5 7.5zm0-10A2.5 2.5 0 1 1 29 7.5 2.5 2.5 0 0 1 31.5 5zM8.5 16a8.5 8.5 0 1 0 8.5 8.5A8.51 8.51 0 0 0 8.5 16zm0 12a3.5 3.5 0 1 1 3.5-3.5A3.5 3.5 0 0 1 8.5 28zM34.5 31a9.5 9.5 0 1 0 9.5 9.5 9.5 9.5 0 0 0-9.5-9.5zm0 14a4.5 4.5 0 1 1 4.5-4.5 4.51 4.51 0 0 1-4.5 4.5z"/></g></g></g></svg>