<svg xmlns="http://www.w3.org/2000/svg" width="50" height="44.96" viewBox="0 0 50 44.96"><defs><style>.cls-1{fill:#111}.cls-2{fill:#00c569}</style></defs><title>Ways_of_payment</title><g id="Layer_2" data-name="Layer 2"><g id="Ways_of_payment"><path class="cls-1" d="M43.67 10.13l-3.23-6A8 8 0 0 0 29.63 1L13 10H8a8 8 0 0 0-8 8v19a8 8 0 0 0 8 8h34a8 8 0 0 0 8-8V18a8 8 0 0 0-6.33-7.87zM32 5.36A2.93 2.93 0 0 1 33.42 5a3 3 0 0 1 2.63 1.56L37.89 10H23.52zM45 37a3 3 0 0 1-3 3H8a3 3 0 0 1-3-3V18a3 3 0 0 1 3-3h34a3 3 0 0 1 3 3z"/><rect class="cls-2" x="10" y="19.96" width="30" height="5" rx="2.5" ry="2.5"/></g></g></svg>