<svg xmlns="http://www.w3.org/2000/svg" width="35.58" height="48.99" viewBox="0 0 35.58 48.99"><defs><style>.cls-1{fill:#111}.cls-2{fill:#00c569}</style></defs><title>Write</title><g id="Layer_2" data-name="Layer 2"><g id="Write"><path class="cls-1" d="M34.5 7L26.35.6a2.81 2.81 0 0 0-4 .47l-18.9 24A2.93 2.93 0 0 0 3 26.2L.23 38.07a2.79 2.79 0 0 0 1 2.84 2.75 2.75 0 0 0 3 .3l10.9-5.45a2.86 2.86 0 0 0 .95-.78L35 11a2.81 2.81 0 0 0-.5-4zm-22 24.49l-6.3 3.15 1.54-6.84 11-14.06 4.72 3.71zm14.15-18l-4.76-3.68L25 5.88l4.71 3.71z"/><rect class="cls-2" y="43.99" width="35" height="5" rx="2.5" ry="2.5"/></g></g></svg>