<?xml version="1.0" encoding="UTF-8"?>
<svg width="24px" height="24px" viewBox="0 0 24 24" version="1.1" xmlns="http://www.w3.org/2000/svg" xmlns:xlink="http://www.w3.org/1999/xlink">
    <!-- Generator: Sketch 64 (93537) - https://sketch.com -->
    <title>Delete</title>
    <desc>Created with Sketch.</desc>
    <g id="Symbols" stroke="none" stroke-width="1" fill="none" fill-rule="evenodd">
        <g id="element/content/uploaded/default" transform="translate(-283.000000, -29.000000)">
            <g id="Delete" transform="translate(283.000000, 29.000000)">
                <circle id="Oval" stroke="#4D4D4D" fill="#FFFFFF" cx="12" cy="12" r="11.5"></circle>
                <g id="icon/24/close/black" transform="translate(6.000000, 6.000000)" fill="#292925">
                    <g id="noun_Close_1126681" transform="translate(3.000000, 3.000000)">
                        <path d="M0.0218578147,0.176223441 C-0.0213650714,0.282661258 0.00420262438,0.404679003 0.0865179785,0.484803746 L2.85083519,3.24952499 L0.0865179785,6.01424623 C0.0129393323,6.08509263 -0.0166402335,6.1901624 0.00916928299,6.28899704 C0.0349787995,6.38783169 0.112151922,6.46501609 0.210972121,6.49082938 C0.30979232,6.51664267 0.414846739,6.48705878 0.485682787,6.41346938 L3.25,3.64874814 L6.01431721,6.41346938 C6.08515326,6.48705878 6.19020768,6.51664267 6.28902788,6.49082938 C6.38784808,6.46501609 6.4650212,6.38783169 6.49083072,6.28899704 C6.51664023,6.1901624 6.48706067,6.08509263 6.41348202,6.01424623 L3.64916481,3.24952499 L6.41348202,0.484803746 C6.49696833,0.403640491 6.52207103,0.279541237 6.47669424,0.172304027 C6.43131744,0.0650668173 6.32476998,-0.0033091548 6.20839244,0.000123523179 C6.13505801,0.00230864163 6.06545477,0.0329618292 6.0143285,0.085589066 L3.25001129,2.85031031 L0.485694078,0.085589066 C0.43254947,0.0309518953 0.359574305,0.000127396423 0.283359494,0.000123523179 C0.168474967,0.000152810749 0.0650807008,0.0697856243 0.0218578147,0.176223441 Z" id="Path"></path>
                    </g>
                </g>
            </g>
        </g>
    </g>
</svg>