<?xml version="1.0" encoding="UTF-8"?>
<svg width="24px" height="24px" viewBox="0 0 24 24" version="1.1" xmlns="http://www.w3.org/2000/svg" xmlns:xlink="http://www.w3.org/1999/xlink">
    <!-- Generator: Sketch 64 (93537) - https://sketch.com -->
    <title>icon/24/info</title>
    <desc>Created with Sketch.</desc>
    <g id="icon/24/info" stroke="none" stroke-width="1" fill="none" fill-rule="evenodd">
        <g id="noun_i_2392586" transform="translate(2.000000, 2.000000)" fill="#000000" fill-rule="nonzero">
            <path d="M10,0 C4.4771525,0 0,4.4771525 0,10 C0,15.5228475 4.4771525,20 10,20 C15.5228475,20 20,15.5228475 20,10 C19.9938203,4.47971424 15.5202858,0.00617969201 10,0 Z M10,18.8888889 C5.09080222,18.8888889 1.11111111,14.9091978 1.11111111,10 C1.11111111,5.09080222 5.09080222,1.11111111 10,1.11111111 C14.9091978,1.11111111 18.8888889,5.09080222 18.8888889,10 C18.8833748,14.9069119 14.9069119,18.8833748 10,18.8888889 Z" id="Shape"></path>
            <path d="M10,8 C9.73478209,8 9.48042548,8.10182997 9.29288809,8.2831 C9.10535071,8.46437003 9,8.71022624 9,8.96658077 L9,15.0334192 C9,15.567247 9.44771525,16 10,16 C10.5522847,16 11,15.567247 11,15.0334192 L11,8.96658077 C11,8.71022624 10.8946493,8.46437003 10.7071119,8.2831 C10.5195745,8.10182997 10.2652179,8 10,8 L10,8 Z" id="Path"></path>
            <circle id="Oval" cx="10" cy="6" r="1"></circle>
        </g>
    </g>
</svg>