<?xml version="1.0" encoding="UTF-8"?>
<svg width="24px" height="24px" viewBox="0 0 24 24" version="1.1" xmlns="http://www.w3.org/2000/svg" xmlns:xlink="http://www.w3.org/1999/xlink">
    <!-- Generator: Sketch 64 (93537) - https://sketch.com -->
    <title>icon/24/position</title>
    <desc>Created with Sketch.</desc>
    <g id="icon/24/position" stroke="none" stroke-width="1" fill="none" fill-rule="evenodd">
        <g transform="translate(3.000000, 3.000000)" fill="#2B2B2B" id="locate">
            <g>
                <path d="M18,8.6326087 L16.3636364,8.6326087 C16.0944966,4.96286553 13.2070266,2.04398475 9.57272727,1.76782609 L9.57272727,0.115652174 L8.45181818,0.115652174 L8.45181818,1.76782609 C4.80794499,2.03228108 1.9070465,4.95417534 1.63636364,8.6326087 L-2.90676574e-15,8.6326087 L-2.90676574e-15,9.73130435 L1.63636364,9.73130435 C1.90935872,13.3978255 4.79583791,16.3121934 8.42727273,16.5878261 L8.42727273,18.24 L9.52363636,18.24 L9.52363636,16.5878261 C13.1550712,16.3121934 16.0415504,13.3978255 16.3145455,9.73130435 L17.9509091,9.73130435 L18,8.6326087 Z M9.54818182,15.4891304 L9.54818182,13.3082609 L8.45181818,13.3082609 L8.45181818,15.4891304 C5.40436153,15.2234698 2.98766388,12.7834224 2.72454545,9.70652174 L4.90909091,9.70652174 L4.90909091,8.6326087 L2.74909091,8.6326087 C3.01220933,5.55570802 5.42890698,3.11566063 8.47636364,2.85 L8.47636364,5.0473913 L9.57272727,5.0473913 L9.57272727,2.86652174 C12.6201839,3.13218237 15.0368816,5.57222976 15.3,8.64913043 L13.0909091,8.64913043 L13.0909091,9.74782609 L15.2509091,9.74782609 C14.9709034,12.8001203 12.5720596,15.2151915 9.54818182,15.4891304 L9.54818182,15.4891304 Z" id="Shape"></path>
            </g>
        </g>
    </g>
</svg>