<?xml version="1.0" encoding="UTF-8"?>
<svg width="24px" height="24px" viewBox="0 0 24 24" version="1.1" xmlns="http://www.w3.org/2000/svg" xmlns:xlink="http://www.w3.org/1999/xlink">
    <!-- Generator: Sketch 64 (93537) - https://sketch.com -->
    <title>icon/24/trashcan</title>
    <desc>Created with Sketch.</desc>
    <g id="icon/24/trashcan" stroke="none" stroke-width="1" fill="none" fill-rule="evenodd">
        <g id="noun_Trash-Can_1077455" transform="translate(6.000000, 4.000000)" fill="#000000" fill-rule="nonzero">
            <path d="M6.11879699,5.8490566 C6.11879699,5.37735849 6.86165414,5.37735849 6.86165414,5.8490566 C6.86165414,8.75471698 6.86165414,11.6603774 6.86165414,14.5849057 C6.86165414,15.0566038 6.11879699,15.0566038 6.11879699,14.5849057 C6.11879699,11.6603774 6.11879699,8.75471698 6.11879699,5.8490566 L6.11879699,5.8490566 Z M8.81654135,5.8490566 C8.81654135,8.75471698 8.81654135,11.6603774 8.81654135,14.5849057 C8.81654135,15.0566038 9.5593985,15.0566038 9.5593985,14.5849057 C9.5593985,11.6792453 9.5593985,8.77358491 9.5593985,5.8490566 C9.5593985,5.37735849 8.81654135,5.37735849 8.81654135,5.8490566 L8.81654135,5.8490566 Z M3.42105263,5.8490566 C3.42105263,8.75471698 3.42105263,11.6603774 3.42105263,14.5849057 C3.42105263,15.0566038 4.16390977,15.0566038 4.16390977,14.5849057 C4.16390977,11.6792453 4.16390977,8.77358491 4.16390977,5.8490566 C4.16390977,5.37735849 3.42105263,5.37735849 3.42105263,5.8490566 L3.42105263,5.8490566 Z M13,2.22641509 L13,3.41509434 C13,3.83018868 12.6481203,4.16981132 12.2180451,4.16981132 L11.9834586,4.16981132 L11.9834586,15.6792453 C11.9834586,16.4150943 11.3774436,17 10.6150376,17 L2.38496241,17 C1.62255639,17 1.01654135,16.4150943 1.01654135,15.6792453 L1.01654135,4.16981132 L0.781954887,4.16981132 C0.351879699,4.16981132 0,3.83018868 0,3.41509434 L0,2.22641509 C0,1.81132075 0.351879699,1.47169811 0.781954887,1.47169811 L4.18345865,1.47169811 L4.18345865,0.830188679 C4.18345865,0.377358491 4.57443609,0 5.04360902,0 L7.97593985,0 C8.44511278,0 8.83609023,0.377358491 8.83609023,0.830188679 L8.83609023,1.47169811 L12.237594,1.47169811 C12.6481203,1.47169811 13,1.81132075 13,2.22641509 Z M4.92631579,1.43396226 L8.05413534,1.43396226 L8.05413534,0.830188679 C8.05413534,0.773584906 8.01503759,0.735849057 7.95639098,0.735849057 L5.02406015,0.735849057 C4.96541353,0.716981132 4.92631579,0.754716981 4.92631579,0.830188679 L4.92631579,1.43396226 Z M11.2210526,4.16981132 L1.7593985,4.16981132 L1.7593985,15.6792453 C1.7593985,16.0188679 2.03308271,16.2830189 2.38496241,16.2830189 L10.5954887,16.2830189 C10.9473684,16.2830189 11.2210526,16.0188679 11.2210526,15.6792453 L11.2210526,4.16981132 Z M12.2571429,2.22641509 C12.2571429,2.20754717 12.237594,2.18867925 12.2180451,2.18867925 L0.762406015,2.18867925 C0.742857143,2.18867925 0.723308271,2.20754717 0.723308271,2.22641509 L0.723308271,3.41509434 C0.723308271,3.43396226 0.742857143,3.45283019 0.762406015,3.45283019 L0.996992481,3.45283019 L11.9639098,3.45283019 L12.1984962,3.45283019 C12.2180451,3.45283019 12.237594,3.43396226 12.237594,3.41509434 L12.237594,2.22641509 L12.2571429,2.22641509 Z" id="Shape"></path>
        </g>
    </g>
</svg>