<?xml version="1.0" encoding="UTF-8"?>
<svg width="48px" height="48px" viewBox="0 0 48 48" version="1.1" xmlns="http://www.w3.org/2000/svg" xmlns:xlink="http://www.w3.org/1999/xlink">
    <!-- Generator: Sketch 64 (93537) - https://sketch.com -->
    <title>icon/48/close/dark</title>
    <desc>Created with Sketch.</desc>
    <g id="icon/48/close/dark" stroke="none" stroke-width="1" fill="none" fill-rule="evenodd">
        <g id="noun_Close_1126681" transform="translate(8.000000, 8.000000)" fill="#292925">
            <path d="M0.107607703,0.867561556 C-0.10518189,1.39156312 0.0206898431,1.99226586 0.425934664,2.38672614 L14.0348809,15.9976615 L0.425934664,29.6085968 C0.0637013282,29.9573791 -0.0819211497,30.4746457 0.0451410855,30.9612162 C0.172203321,31.4477868 0.552132537,31.8277715 1.03863198,31.9548523 C1.52513142,32.0819331 2.04232241,31.9362894 2.39105372,31.5740031 L16,17.9630677 L29.6089463,31.5740031 C29.9576776,31.9362894 30.4748686,32.0819331 30.961368,31.9548523 C31.4478675,31.8277715 31.8277967,31.4477868 31.9548589,30.9612162 C32.0819211,30.4746457 31.9362987,29.9573791 31.5740653,29.6085968 L17.9651191,15.9976615 L31.5740653,2.38672614 C31.9850748,1.98715318 32.1086574,1.37620301 31.8852639,0.848265979 C31.6618705,0.320328947 31.1373291,-0.0162912236 30.5643935,0.000608114114 C30.2033625,0.0113656203 29.8607004,0.162273621 29.6090019,0.421361556 L16.0000556,14.0322969 L2.39110931,0.421361556 C2.12947432,0.152378561 1.77021196,0.00062718239 1.39500059,0.000608114114 C0.829415223,0.000752299072 0.320397296,0.343559996 0.107607703,0.867561556 Z" id="Path"></path>
        </g>
    </g>
</svg>